<svg width="15" height="15" viewBox="0 0 15 15" fill="none" xmlns="http://www.w3.org/2000/svg">
<path d="M14.2848 3.05558L11.9445 0.715304C11.8407 0.611158 11.7173 0.528529 11.5815 0.472149C11.4456 0.41577 11.3 0.386749 11.1529 0.386749C11.0058 0.386749 10.8602 0.41577 10.7243 0.472149C10.5885 0.528529 10.4651 0.611158 10.3612 0.715304L0.840384 10.2917L0.0695508 13.632C0.0367115 13.7939 0.0401637 13.9611 0.0796598 14.1215C0.119156 14.2819 0.193713 14.4316 0.29797 14.5598C0.402227 14.6879 0.533592 14.7914 0.682616 14.8627C0.831639 14.934 0.994618 14.9714 1.15983 14.9722C1.24522 14.9817 1.33138 14.9817 1.41677 14.9722L4.78483 14.2292L14.2848 4.63892C14.389 4.53505 14.4716 4.41166 14.528 4.27582C14.5844 4.13997 14.6134 3.99433 14.6134 3.84725C14.6134 3.70017 14.5844 3.55453 14.528 3.41868C14.4716 3.28283 14.389 3.15944 14.2848 3.05558ZM4.06261 12.9445L1.52094 13.507L2.11122 10.9861L9.27788 3.77086L11.2362 5.72919L4.06261 12.9445ZM12.0209 4.94447L10.0626 2.98614L11.139 1.88891L13.1112 3.86114L12.0209 4.94447Z" fill="white"/>
</svg>
