<svg width="31" height="31" viewBox="0 0 31 31" fill="none" xmlns="http://www.w3.org/2000/svg">
<path d="M25.7083 3.83333H23.5937C23.4195 3.3015 23.1475 2.8069 22.7916 2.375C22.379 1.91364 21.8731 1.54508 21.3075 1.29369C20.7419 1.0423 20.1293 0.913798 19.5104 0.916667H11.5187C10.8948 0.909645 10.2767 1.03614 9.70572 1.28767C9.13476 1.53919 8.62419 1.90993 8.20829 2.375C7.84203 2.80456 7.56002 3.29931 7.37704 3.83333H5.29163C4.1313 3.83333 3.01851 4.29427 2.19803 5.11474C1.37756 5.93521 0.916626 7.04801 0.916626 8.20833V25.7083C0.916626 26.8687 1.37756 27.9815 2.19803 28.8019C3.01851 29.6224 4.1313 30.0833 5.29163 30.0833H25.7083C26.8686 30.0833 27.9814 29.6224 28.8019 28.8019C29.6224 27.9815 30.0833 26.8687 30.0833 25.7083V8.20833C30.0833 7.04801 29.6224 5.93521 28.8019 5.11474C27.9814 4.29427 26.8686 3.83333 25.7083 3.83333ZM10.425 4.32917C10.5616 4.17361 10.7298 4.04893 10.9184 3.96344C11.107 3.87795 11.3116 3.8336 11.5187 3.83333H19.4812C19.6883 3.8336 19.8929 3.87795 20.0815 3.96344C20.2701 4.04893 20.4383 4.17361 20.575 4.32917C20.7126 4.48229 20.8162 4.66282 20.8791 4.85888C20.9419 5.05493 20.9625 5.26207 20.9395 5.46667L20.2104 11.3C20.1674 11.6557 19.995 11.9831 19.726 12.2198C19.457 12.4565 19.1103 12.5859 18.752 12.5833H16.3604L18.0229 9.08333C18.1577 8.74011 18.1575 8.35856 18.0222 8.0155C17.887 7.67244 17.6269 7.39333 17.2942 7.23436C16.9614 7.0754 16.5809 7.04837 16.229 7.15873C15.8772 7.2691 15.5802 7.50865 15.3979 7.82917L13.1229 12.5833H12.2479C11.8896 12.5859 11.5429 12.4565 11.2739 12.2198C11.005 11.9831 10.8325 11.6557 10.7895 11.3L10.0604 5.46667C10.0374 5.26207 10.058 5.05493 10.1209 4.85888C10.1837 4.66282 10.2873 4.48229 10.425 4.32917ZM27.1666 25.7083C27.1666 26.0951 27.013 26.466 26.7395 26.7395C26.466 27.013 26.0951 27.1667 25.7083 27.1667H5.29163C4.90485 27.1667 4.53392 27.013 4.26043 26.7395C3.98694 26.466 3.83329 26.0951 3.83329 25.7083V8.20833C3.83329 7.82156 3.98694 7.45063 4.26043 7.17714C4.53392 6.90365 4.90485 6.75 5.29163 6.75H7.28954L7.90204 11.6646C8.03431 12.729 8.55301 13.7078 9.3596 14.4149C10.1662 15.122 11.2044 15.5082 12.277 15.5H18.7812C19.8538 15.5082 20.8921 15.122 21.6987 14.4149C22.5052 13.7078 23.024 12.729 23.1562 11.6646L23.7104 6.75H25.7083C26.0951 6.75 26.466 6.90365 26.7395 7.17714C27.013 7.45063 27.1666 7.82156 27.1666 8.20833V25.7083ZM18.4166 21.3333H12.5833C12.1965 21.3333 11.8256 21.487 11.5521 21.7605C11.2786 22.034 11.125 22.4049 11.125 22.7917C11.125 23.1784 11.2786 23.5494 11.5521 23.8229C11.8256 24.0964 12.1965 24.25 12.5833 24.25H18.4166C18.8034 24.25 19.1743 24.0964 19.4478 23.8229C19.7213 23.5494 19.875 23.1784 19.875 22.7917C19.875 22.4049 19.7213 22.034 19.4478 21.7605C19.1743 21.487 18.8034 21.3333 18.4166 21.3333Z" fill="white"/>
</svg>
