<svg width="28" height="30" viewBox="0 0 28 30" fill="none" xmlns="http://www.w3.org/2000/svg">
<path d="M12.2604 20.1375L10.1896 18.0813L12.2604 16.0104L14.3167 18.0813L16.373 16.0104L14.3167 13.9542L16.373 11.8979L18.4438 13.9542L20.5 11.8979L16.373 7.77083L6.06253 18.0813L10.1896 22.2083L12.2604 20.1375ZM0.491699 25.7083L5.0417 21.1729L1.95003 18.0813L16.373 3.64375L19.4792 6.75L21.5209 4.67917L19.4792 2.60833L21.5209 0.552084L27.7188 6.75L25.6625 8.79167L23.5917 6.75L21.5209 8.79167L24.6271 11.8979L10.1896 26.3208L7.09795 23.2292L0.491699 29.85V25.7083Z" fill="white"/>
</svg>
